<svg xmlns="http://www.w3.org/2000/svg" viewBox="0 0 1173.52 434.13"><defs><style>.cls-1{fill:#231f20;}.cls-2,.cls-3{fill:none;stroke:#1562ae;stroke-miterlimit:10;}.cls-2{stroke-width:5px;}.cls-3{stroke-width:17px;}.cls-4{fill:#1562ae;}</style></defs><g id="Layer_2" data-name="Layer 2"><rect class="cls-1" width="1173.52" height="434.13"/></g><g id="Layer_1" data-name="Layer 1"><path class="cls-2" d="M235.35,131.41c9.12,0,72.23-.52,72.23-.52,0-65.07-53.24-118.31-118.31-118.31S71,65.82,71,130.89v46.66l-2.41-3.34L21.71,109.44l11.41,56.67,1.14,70.64a31,31,0,0,0,12.4,20.69L71.6,278.53" transform="translate(1.14 -0.67)"/><path class="cls-3" d="M136.31,305.29a52.73,52.73,0,0,0,11.77,20.78,66.14,66.14,0,0,0,40,20.71c32.85,4.09,56-18.53,58.13-20.71C271.46,300.6,259,268,258,265.65c-9.2-22.73-60.7-45.39-67.45-49.12-10.53-6-63.3-33.71-69.9-50-.94-2.31-13.42-35,11.77-60.43,2.15-2.17,25.28-24.8,58.13-20.71a66.22,66.22,0,0,1,40.06,20.71c10,11,12.55,18.7,12.53,23.6" transform="translate(1.14 -0.67)"/><path class="cls-2" d="M307.57,175.22l46.83-64.77L343,167.13l-1.14,70.63a31,31,0,0,1-12.4,20.7L307.58,277v28.34c0,65.07-53.24,118.31-118.31,118.31S71,370.36,71,305.29l73.93.54" transform="translate(1.14 -0.67)"/><path class="cls-4" d="M370.82,74.79l73.16.49c37.45.25,63,28.12,62.7,76.51-.33,49.16-26,77.87-65.78,77.6l-55-.36-.79,119-16.1-.1ZM386,209.52l56.48.37c33.07.22,47-23.1,47.2-57.44C490,115.78,471.94,95,444.43,94.79l-57.65-.38Z" transform="translate(1.14 -0.67)"/><path class="cls-4" d="M722.84,211.75c-.49,74.53-30.79,142.22-94,141.8-57.65-.38-90.89-62.64-90.37-141.07.51-77.26,33.41-140.25,94.28-139.85C688.94,73,723.37,132.15,722.84,211.75Zm-167.39-.33c-.42,62.82,25.23,122.3,74.4,122.63,53,.35,75.59-57.25,76-122,.42-63.6-24.38-119.56-73.83-119.89C579.36,91.79,555.86,149.77,555.45,211.42Z" transform="translate(1.14 -0.67)"/><path class="cls-4" d="M922,278.63c-10,43.25-34.16,75.86-77.47,75.58-58.83-.39-89.43-63-88.92-139.9.49-73.74,31.37-140.66,91.07-140.26,44.19.29,70,33.24,76.44,78.94l-15.8-.1c-9.13-35.57-26.24-59.1-61.65-59.33C794.74,93.22,773,155.11,772.57,214c-.38,58.53,20.28,120.32,72.66,120.67,33.36.22,50.49-22.69,60.95-56.17Z" transform="translate(1.14 -0.67)"/><path class="cls-4" d="M967.5,78.76l15.8.1-.94,142c16.52-21,75.54-93.93,112.44-141.29l21.07.14L1023.2,195.41l96.12,157.5-19.61-.13L1011.7,209l-29.49,34.14L981.49,352l-15.81-.1Z" transform="translate(1.14 -0.67)"/></g></svg>