<svg xmlns="http://www.w3.org/2000/svg" viewBox="0 0 1230.55 392.65"><defs><style>.cls-1{fill:none;stroke-width:15px;}.cls-1,.cls-2{stroke:#000;stroke-miterlimit:10;}</style></defs><g id="Layer_1" data-name="Layer 1"><path class="cls-1" d="M321.93,172.42l43-59.51L354.49,165l-1.05,64.9a28.43,28.43,0,0,1-11.41,19l-20.1,17v26c0,59.79-48.92,108.72-108.72,108.72S104.49,351.73,104.49,291.94h66.24A51.5,51.5,0,0,0,180,311c2.75,3.55,13.49,16.43,31.33,19,25.7,3.75,43.79-17,45.48-19,19.71-23.41,9.95-53.39,9.22-55.52-7.18-20.88-47.5-41.71-52.77-45.13-8.24-5.55-49.54-31-54.69-45.95-.72-2.15-10.5-32.11,9.21-55.52,1.68-2,19.78-22.79,45.48-19,17.84,2.61,28.59,15.48,31.34,19a48.5,48.5,0,0,1,9.81,21.68l.24,1.11h67.33C321.93,71.9,273,23,213.21,23S104.49,71.9,104.49,131.69v42.87l-2.24-3.07L59.22,112,69.7,164.06l1,64.9a28.44,28.44,0,0,0,11.4,19l22.92,19.38" transform="translate(-45.05 -15.51)"/><path class="cls-2" d="M426.57,267.55c5.66,33.39,22.35,53.14,53.32,53.14,34.46,0,47.66-23,47.66-50.26,0-28.36-9.43-46-50.89-59.6-39.85-13.28-57.09-30.51-57.09-66.77,0-33,18-63.9,58.43-63.9,41.47,0,59,33.75,61.39,64.26H524.31c-4.3-26.92-17.5-46.31-47.12-46.31-27.19,0-42,16.87-42,44.87,0,27.65,12.39,38.42,47.12,49.9,53,17.6,60.85,46,60.85,76.11,0,37-20.19,68.93-63.81,68.93-47.12,0-64.35-36.62-67.85-70.37Z" transform="translate(-45.05 -15.51)"/><path class="cls-2" d="M584.35,83.75h67.31c34.47,0,58.16,25.49,58.16,70,0,45.24-23.42,71.8-60,71.8H599.16v109.5H584.35ZM599.16,207.6h52c30.42,0,43.08-21.54,43.08-53.13,0-33.74-16.7-52.77-42-52.77h-53Z" transform="translate(-45.05 -15.51)"/><path class="cls-2" d="M909.07,207.6c0,68.57-27.46,131-85.62,131-53.05,0-84-57.08-84-129.24,0-71.08,29.89-129.24,85.89-129.24C877,80.16,909.07,134.37,909.07,207.6Zm-154,.72c0,57.8,24,112.37,69.2,112.37,48.74,0,69.2-53.14,69.2-112.73,0-58.51-23.15-109.85-68.66-109.85C776.33,98.11,755.05,151.6,755.05,208.32Z" transform="translate(-45.05 -15.51)"/><path class="cls-2" d="M1092.69,267.91c-8.88,39.85-31,70-70.81,70-54.12,0-82.66-57.44-82.66-128.16,0-67.85,28-129.6,82.93-129.6,40.66,0,64.62,30.16,70.81,72.16h-14.54c-8.61-32.67-24.5-54.21-57.08-54.21-46.85,0-66.5,57.08-66.5,111.29,0,53.85,19.38,110.57,67.58,110.57,30.69,0,46.31-21.18,55.73-52.06Z" transform="translate(-45.05 -15.51)"/><path class="cls-2" d="M1133.34,83.75h14.54V214.42C1163,195,1216.81,127.55,1250.47,83.75h19.39l-84.55,107,89.39,144.32h-18L1174.81,203.3l-26.93,31.59V335.05h-14.54Z" transform="translate(-45.05 -15.51)"/></g></svg>