<svg xmlns="http://www.w3.org/2000/svg" viewBox="0 0 1270.66 433.52"><defs><style>.cls-1{fill:#1a64af;}.cls-2{fill:none;stroke:#070808;stroke-width:15px;}.cls-2,.cls-3{stroke-miterlimit:10;}.cls-3{stroke:#000;}</style></defs><g id="Layer_2" data-name="Layer 2"><rect class="cls-1" width="384.33" height="433.52" rx="136.5"/><path class="cls-2" d="M310.78,175.52l42.61-58.94L343,168.15l-1,64.27a28.2,28.2,0,0,1-11.28,18.83l-19.9,16.82v25.78c0,59.2-48.44,107.63-107.65,107.63S95.51,353.06,95.51,293.85H161.1a50.83,50.83,0,0,0,9.11,18.91c2.72,3.51,13.37,16.26,31,18.84,25.44,3.72,43.36-16.87,45-18.84,19.52-23.19,9.85-52.88,9.13-55-7.11-20.68-47-41.3-52.26-44.68-8.15-5.5-49-30.68-54.15-45.49-.71-2.14-10.39-31.8,9.13-55,1.66-2,19.58-22.56,45-18.83,17.68,2.58,28.32,15.32,31,18.83a48,48,0,0,1,9.74,21.47l.25,1.1h66.66c0-59.21-48.45-107.65-107.65-107.65S95.51,76,95.51,135.18v42.45l-2.2-3L50.66,115.66,61,167.23l1,64.26a28.16,28.16,0,0,0,11.28,18.83l22.69,19.19" transform="translate(-5.74 0.6)"/></g><g id="Layer_1" data-name="Layer 1"><path class="cls-3" d="M427.37,264c5.66,33.38,22.35,53.13,53.32,53.13,34.46,0,47.65-23,47.65-50.26,0-28.36-9.42-45.95-50.88-59.59-39.85-13.29-57.09-30.52-57.09-66.78,0-33,18-63.9,58.43-63.9,41.47,0,59,33.75,61.39,64.26H525.11C520.8,114,507.61,94.58,478,94.58c-27.19,0-42,16.87-42,44.88,0,27.64,12.39,38.41,47.12,49.9,53,17.59,60.85,45.95,60.85,76.1,0,37-20.19,68.93-63.81,68.93-47.12,0-64.35-36.62-67.85-70.36Z" transform="translate(-5.74 0.6)"/><path class="cls-3" d="M585.15,80.22h67.31c34.47,0,58.16,25.49,58.16,70,0,45.23-23.42,71.79-60,71.79H600v109.5H585.15ZM600,204.07h52c30.42,0,43.08-21.53,43.08-53.13,0-33.74-16.7-52.77-42-52.77H600Z" transform="translate(-5.74 0.6)"/><path class="cls-3" d="M909.87,204.07c0,68.57-27.46,131-85.62,131-53,0-84-57.08-84-129.24,0-71.08,29.89-129.24,85.89-129.24C877.83,76.63,909.87,130.84,909.87,204.07Zm-154,.72c0,57.8,24,112.37,69.2,112.37,48.74,0,69.2-53.13,69.2-112.73,0-58.51-23.15-109.85-68.66-109.85C777.13,94.58,755.85,148.07,755.85,204.79Z" transform="translate(-5.74 0.6)"/><path class="cls-3" d="M1093.49,264.39c-8.88,39.84-31,70-70.81,70C968.56,334.39,940,277,940,206.23c0-67.85,28-129.6,82.93-129.6,40.66,0,64.62,30.16,70.81,72.16h-14.54c-8.61-32.67-24.5-54.21-57.08-54.21-46.85,0-66.51,57.08-66.51,111.29,0,53.85,19.39,110.57,67.59,110.57,30.69,0,46.31-21.18,55.73-52.05Z" transform="translate(-5.74 0.6)"/><path class="cls-3" d="M1134.14,80.22h14.54V210.9c15.08-19.39,68.93-86.88,102.59-130.68h19.39l-84.55,107,89.39,144.32h-18l-81.85-131.75-26.93,31.59V331.52h-14.54Z" transform="translate(-5.74 0.6)"/></g></svg>