<svg id="Layer_1" data-name="Layer 1" xmlns="http://www.w3.org/2000/svg" viewBox="0 0 1102.33 416.07"><defs><style>.cls-1,.cls-2{fill:none;stroke:#1562ae;stroke-miterlimit:10;}.cls-1{stroke-width:5px;}.cls-2{stroke-width:17px;}.cls-3{fill:#1562ae;}</style></defs><g id="Layer_1-2" data-name="Layer 1"><path class="cls-1" d="M236.49,130.74c9.12,0,72.23-.52,72.23-.52,0-65.07-53.24-118.31-118.31-118.31S72.14,65.15,72.14,130.22v46.66l-2.41-3.34L22.85,108.77l11.41,56.67,1.14,70.64a31,31,0,0,0,12.4,20.69l24.94,21.09" transform="translate(-18.13 -9.41)"/><path class="cls-2" d="M137.45,304.62a52.71,52.71,0,0,0,11.77,20.78,66.13,66.13,0,0,0,40,20.71c32.85,4.09,56-18.53,58.13-20.71,25.25-25.47,12.79-58.07,11.79-60.42-9.2-22.73-60.7-45.39-67.45-49.12-10.53-6-63.3-33.71-69.9-50-.94-2.31-13.42-35,11.77-60.43,2.15-2.17,25.28-24.8,58.13-20.71a66.18,66.18,0,0,1,40.06,20.71c10,11,12.55,18.7,12.53,23.6" transform="translate(-18.13 -9.41)"/><path class="cls-1" d="M308.71,174.55l46.83-64.77-11.4,56.68L343,237.09a31,31,0,0,1-12.4,20.7l-21.88,18.54v28.34c0,65.07-53.24,118.31-118.31,118.31S72.14,369.69,72.14,304.62l73.93.54" transform="translate(-18.13 -9.41)"/><path class="cls-3" d="M372,74.12l73.16.49c37.45.25,63,28.12,62.7,76.51-.33,49.16-26,77.87-65.78,77.6l-55-.36-.79,119-16.1-.1Zm15.18,134.73,56.48.37c33.07.22,47-23.1,47.2-57.44.32-36.67-17.74-57.45-45.25-57.66l-57.65-.38Z" transform="translate(-18.13 -9.41)"/><path class="cls-3" d="M724,211.08c-.49,74.53-30.79,142.22-94,141.8-57.65-.38-90.89-62.64-90.37-141.07C540.12,134.55,573,71.56,633.89,72,690.08,72.33,724.51,131.48,724,211.08Zm-167.39-.33c-.42,62.82,25.23,122.3,74.4,122.63,53,.35,75.59-57.25,76-122,.42-63.6-24.38-119.56-73.83-119.89C580.5,91.12,557,149.1,556.59,210.75Z" transform="translate(-18.13 -9.41)"/><path class="cls-3" d="M923.14,278c-10,43.25-34.16,75.86-77.47,75.58-58.83-.39-89.43-63-88.92-139.9C757.24,139.9,788.12,73,847.82,73.38c44.19.29,70,33.24,76.44,78.94l-15.8-.1c-9.13-35.57-26.24-59.1-61.65-59.33-50.93-.34-72.67,61.55-73.1,120.44C773.33,271.86,794,333.65,846.37,334c33.36.22,50.49-22.69,61-56.17Z" transform="translate(-18.13 -9.41)"/><path class="cls-3" d="M968.64,78.09l15.8.1-.94,142c16.52-21,75.54-93.93,112.44-141.29L1117,79l-92.67,115.7,96.12,157.5-19.61-.13-88-143.78-29.49,34.14-.72,108.86-15.81-.1Z" transform="translate(-18.13 -9.41)"/></g></svg>