<svg id="Layer_1" data-name="Layer 1" xmlns="http://www.w3.org/2000/svg" viewBox="0 0 469.29 549.1"><defs><style>.cls-1{fill:none;stroke:#050606;stroke-miterlimit:10;stroke-width:23px;}</style></defs><path class="cls-1" d="M478,270.13l59.95-82.9-14.6,72.55-1.46,90.4A39.62,39.62,0,0,1,506,376.67l-28,23.68v36.26c0,83.29-68.15,151.44-151.44,151.44S175.12,519.9,175.12,436.61h92.27a71.82,71.82,0,0,0,12.83,26.61c3.83,4.94,18.8,22.88,43.65,26.51,35.8,5.23,61-23.73,63.35-26.51,27.46-32.61,13.86-74.38,12.84-77.34-10-29.09-66.16-58.1-73.51-62.87-11.47-7.73-69-43.15-76.18-64-1-3-14.62-44.73,12.84-77.34,2.34-2.78,27.55-31.74,63.34-26.51,24.86,3.64,39.83,21.57,43.66,26.51a67.6,67.6,0,0,1,13.66,30.2l.34,1.54H478C478,130.1,409.84,62,326.55,62S175.12,130.1,175.12,213.39v59.72L172,268.83l-59.95-82.9,14.6,72.55,1.46,90.4A39.62,39.62,0,0,0,144,375.37l31.92,27" transform="translate(-90.35 -50.45)"/></svg>