<?xml version="1.0" encoding="utf-8"?>
<!-- Generator: Adobe Illustrator 25.2.2, SVG Export Plug-In . SVG Version: 6.00 Build 0)  -->
<svg version="1.1" id="Layer_1" xmlns="http://www.w3.org/2000/svg" xmlns:xlink="http://www.w3.org/1999/xlink" x="0px" y="0px"
	 viewBox="0 0 181 209" style="enable-background:new 0 0 181 209;" xml:space="preserve">
<style type="text/css">
	.st0{fill:#295DA8;stroke:#6680AD;stroke-width:6;stroke-miterlimit:10;}
	.st1{fill:none;stroke:#050505;stroke-width:8;stroke-miterlimit:10;}
</style>
<g id="Layer_4">
	<path class="st0" d="M177.6,154.8C177.6,154.8,177.6,154.6,177.6,154.8V54.2L90.4,4C90.4,4,9,50.2,3.1,53.5c0,0.4,0,0.7,0,0.7
		v100.5L90.4,205C90.4,205,175.4,156,177.6,154.8z"/>
</g>
<g id="Layer_3">
	<path class="st1" d="M133.9,88.9l17-23.6L146.7,86l-0.4,25.7c-0.4,3.1-2.1,5.7-4.5,7.5c0,0-5.6,4.7-8,6.7v10.3
		c0,23.7-19.4,43.1-43.1,43.1s-43.1-19.4-43.1-43.1h26.1c0,0,0,0,0.1,0c0.4,1.7,1.4,4.6,3.6,7.5c1.1,1.4,5.3,6.6,12.4,7.5
		c10.2,1.5,17.3-6.7,18-7.5c7.8-9.2,3.9-21.2,3.6-22.1c-2.8-8.2-18.9-16.5-20.9-17.9C87.4,101.6,71,91.5,69,85.6
		c-0.3-0.8-4.2-12.7,3.6-22.1c0.7-0.8,7.8-9.1,18-7.5c7.1,1,11.3,6.1,12.4,7.5c3.1,4,3.6,7.4,3.9,8.7c0,0,0,0.3,0.1,0.4h0.1
		c3.4,0,26.5,0,26.5,0c0-23.7-19.4-43.1-43.1-43.1s-43,19.4-43,43.2V88c0,0,0,0.8,0,1.5c-0.4-0.6-0.8-1.3-0.8-1.3L29.8,65L34,85.6
		l0.4,25.7c0.4,3.1,2.1,5.7,4.5,7.5l9.1,7.7"/>
</g>
<g id="Layer_2_1_">
</g>
</svg>
