<?xml version="1.0" encoding="utf-8"?>
<!-- Generator: Adobe Illustrator 25.2.2, SVG Export Plug-In . SVG Version: 6.00 Build 0)  -->
<svg version="1.1" id="Layer_1" xmlns="http://www.w3.org/2000/svg" xmlns:xlink="http://www.w3.org/1999/xlink" x="0px" y="0px"
	 viewBox="0 0 198.4 198.4" style="enable-background:new 0 0 198.4 198.4;" xml:space="preserve">
<style type="text/css">
	.st0{fill:#295DA8;stroke:#6680AD;stroke-width:6;stroke-miterlimit:10;}
	.st1{fill:none;stroke:#050505;stroke-width:4;stroke-miterlimit:10;}
</style>
<g id="Layer_4">
	<path class="st0" d="M161.7,135.2C161.7,135.2,161.7,135.1,161.7,135.2v-72l-62.5-36c0,0-58.3,33.1-62.5,35.5c0,0.3,0,0.5,0,0.5v72
		l62.5,36C99.2,171.2,160.1,136.1,161.7,135.2z"/>
</g>
<g id="Layer_3">
	<path class="st1" d="M130.4,88l12.2-16.9l-3,14.8l-0.3,18.4c-0.3,2.2-1.5,4.1-3.2,5.4c0,0-4,3.4-5.7,4.8v7.4
		c0,17-13.9,30.9-30.9,30.9s-30.9-13.9-30.9-30.9h18.7c0,0,0,0,0.1,0c0.3,1.2,1,3.3,2.6,5.4c0.8,1,3.8,4.7,8.9,5.4
		c7.3,1.1,12.4-4.8,12.9-5.4c5.6-6.6,2.8-15.2,2.6-15.8c-2-5.9-13.5-11.8-15-12.8c-2.3-1.6-14.1-8.8-15.5-13
		c-0.2-0.6-3-9.1,2.6-15.8c0.5-0.6,5.6-6.5,12.9-5.4c5.1,0.7,8.1,4.4,8.9,5.4c2.2,2.9,2.6,5.3,2.8,6.2c0,0,0,0.2,0.1,0.3h0.1
		c2.4,0,19,0,19,0c0-17-13.9-30.9-30.9-30.9S68.5,59.4,68.5,76.4v11c0,0,0,0.6,0,1.1c-0.3-0.4-0.6-0.9-0.6-0.9L55.8,70.9l3,14.8
		l0.3,18.4c0.3,2.2,1.5,4.1,3.2,5.4l6.5,5.5"/>
</g>
<g id="Layer_2_1_">
</g>
</svg>
